<svg width="148" height="48" viewBox="0 0 148 48" fill="none" xmlns="http://www.w3.org/2000/svg">
  <rect width="148" height="48" rx="10" fill="url(#paint0_linear_5214_4602)"/>
  <path d="M12.1409 33V15.72H26.1449V33H23.2529V18.432H15.0329V33H12.1409ZM29.5081 33V15.72H36.6481C36.8161 15.72 37.0321 15.728 37.2961 15.744C37.5601 15.752 37.8041 15.776 38.0281 15.816C39.0281 15.968 39.8521 16.3 40.5001 16.812C41.1561 17.324 41.6401 17.972 41.9521 18.756C42.2721 19.532 42.4321 20.396 42.4321 21.348C42.4321 22.292 42.2721 23.156 41.9521 23.94C41.6321 24.716 41.1441 25.36 40.4881 25.872C39.8401 26.384 39.0201 26.716 38.0281 26.868C37.8041 26.9 37.5561 26.924 37.2841 26.94C37.0201 26.956 36.8081 26.964 36.6481 26.964H32.4001V33H29.5081ZM32.4001 24.264H36.5281C36.6881 24.264 36.8681 24.256 37.0681 24.24C37.2681 24.224 37.4521 24.192 37.6201 24.144C38.1001 24.024 38.4761 23.812 38.7481 23.508C39.0281 23.204 39.2241 22.86 39.3361 22.476C39.4561 22.092 39.5161 21.716 39.5161 21.348C39.5161 20.98 39.4561 20.604 39.3361 20.22C39.2241 19.828 39.0281 19.48 38.7481 19.176C38.4761 18.872 38.1001 18.66 37.6201 18.54C37.4521 18.492 37.2681 18.464 37.0681 18.456C36.8681 18.44 36.6881 18.432 36.5281 18.432H32.4001V24.264ZM44.8363 33V15.72H55.9963V18.432H47.7283V22.692H54.5563V25.404H47.7283V30.288H55.9963V33H44.8363ZM58.8753 33V15.72H61.4793L67.4553 27.96L73.4313 15.72H76.0353V33H73.3353V21.924L68.0313 33H66.8793L61.5873 21.924V33H58.8753ZM79.3826 33V15.72H82.2746V21.756H86.5226C86.6826 21.756 86.8986 21.764 87.1706 21.78C87.4426 21.788 87.6906 21.812 87.9146 21.852C88.9066 22.004 89.7266 22.336 90.3746 22.848C91.0306 23.36 91.5146 24.008 91.8266 24.792C92.1466 25.568 92.3066 26.428 92.3066 27.372C92.3066 28.324 92.1466 29.192 91.8266 29.976C91.5146 30.752 91.0306 31.396 90.3746 31.908C89.7266 32.42 88.9066 32.752 87.9146 32.904C87.6906 32.936 87.4426 32.96 87.1706 32.976C86.9066 32.992 86.6906 33 86.5226 33H79.3826ZM82.2746 30.288H86.4026C86.5706 30.288 86.7506 30.28 86.9426 30.264C87.1426 30.248 87.3306 30.22 87.5066 30.18C87.9786 30.06 88.3506 29.848 88.6226 29.544C88.9026 29.24 89.0986 28.896 89.2106 28.512C89.3306 28.12 89.3906 27.74 89.3906 27.372C89.3906 27.004 89.3306 26.628 89.2106 26.244C89.0986 25.86 88.9026 25.516 88.6226 25.212C88.3506 24.908 87.9786 24.696 87.5066 24.576C87.3306 24.528 87.1426 24.496 86.9426 24.48C86.7506 24.464 86.5706 24.456 86.4026 24.456H82.2746V30.288ZM94.9456 33V15.72H106.106V18.432H97.8376V22.692H104.666V25.404H97.8376V30.288H106.106V33H94.9456ZM108.985 33V15.72H116.125C116.293 15.72 116.509 15.728 116.773 15.744C117.037 15.752 117.281 15.776 117.505 15.816C118.505 15.968 119.329 16.3 119.977 16.812C120.633 17.324 121.117 17.972 121.429 18.756C121.749 19.532 121.909 20.396 121.909 21.348C121.909 22.292 121.749 23.156 121.429 23.94C121.109 24.716 120.621 25.36 119.965 25.872C119.317 26.384 118.497 26.716 117.505 26.868C117.281 26.9 117.033 26.924 116.761 26.94C116.497 26.956 116.285 26.964 116.125 26.964H111.877V33H108.985ZM111.877 24.264H116.005C116.165 24.264 116.345 24.256 116.545 24.24C116.745 24.224 116.929 24.192 117.097 24.144C117.577 24.024 117.953 23.812 118.225 23.508C118.505 23.204 118.701 22.86 118.813 22.476C118.933 22.092 118.993 21.716 118.993 21.348C118.993 20.98 118.933 20.604 118.813 20.22C118.701 19.828 118.505 19.48 118.225 19.176C117.953 18.872 117.577 18.66 117.097 18.54C116.929 18.492 116.745 18.464 116.545 18.456C116.345 18.44 116.165 18.432 116.005 18.432H111.877V24.264ZM121.918 33L127.366 15.72H131.602L137.05 33H134.074L129.13 17.496H129.778L124.894 33H121.918ZM124.954 29.256V26.556H134.026V29.256H124.954Z" fill="white"/>
  <defs>
    <linearGradient id="paint0_linear_5214_4602" x1="148" y1="24" x2="0" y2="24" gradientUnits="userSpaceOnUse">
      <stop stop-color="#961CC7"/>
      <stop offset="0.5" stop-color="#7015C8"/>
      <stop offset="1" stop-color="#0000C9"/>
    </linearGradient>
  </defs>
</svg>
