<svg width="81" height="47" viewBox="0 0 81 47" fill="none" xmlns="http://www.w3.org/2000/svg">
<path fill-rule="evenodd" clip-rule="evenodd" d="M16.5957 1.06663C15.8308 1.06663 15.0734 1.28885 14.4114 1.7212C13.3282 2.44424 12.7477 3.62463 12.4718 4.37733C13.1858 4.24769 14.167 3.97367 15.0048 3.39504C15.5171 3.03301 16.2732 2.34983 17.1101 1.10092C16.9389 1.07776 16.7667 1.06666 16.5957 1.06663ZM11.7305 5.54562C11.6964 5.54562 11.6609 5.5429 11.6266 5.53547C11.4148 5.49376 11.2489 5.3281 11.2072 5.11704C11.1465 4.8124 11.5248 3.81812 11.7312 3.37838C12.0888 2.6146 12.7422 1.55362 13.8235 0.830579C15.1134 -0.0100681 16.6805 -0.223911 18.1304 0.240851C18.325 0.303753 18.4673 0.472289 18.4951 0.67503C18.5146 0.813911 18.4785 0.952762 18.3988 1.06294C18.3909 1.0759 18.3794 1.09353 18.3646 1.11759C17.2964 2.871 16.2816 3.79867 15.6177 4.26807L15.6131 4.27085C14.2051 5.24475 12.4922 5.48272 11.821 5.53918L11.8055 5.54005C11.7805 5.54382 11.7553 5.54568 11.7305 5.54562Z" fill="#406299"/>
<path fill-rule="evenodd" clip-rule="evenodd" d="M8.72925 3.31725C8.09227 4.08288 7.01243 5.61233 6.90788 7.04454C6.81828 8.17031 7.24294 8.90077 7.66883 9.34147C8.58639 7.70465 8.92974 6.55111 9.05381 5.85305C9.23836 4.76151 8.96871 3.85886 8.72925 3.31725ZM7.81442 10.6922C7.71731 10.6922 7.61979 10.6653 7.5336 10.6126C7.51355 10.5996 7.49288 10.5848 7.47441 10.57C6.92739 10.1876 5.6765 9.07484 5.84408 6.96308C5.9396 5.6642 6.64029 4.3949 7.21051 3.55893C7.53734 3.08025 7.84937 2.70164 8.05301 2.46832C8.4622 1.99892 8.59456 1.87952 8.85386 1.89065C8.97553 1.89523 9.08526 1.9397 9.17327 2.0119C9.19922 2.03315 9.2251 2.0582 9.25102 2.08875C9.51875 2.40536 10.449 4.00513 10.1046 6.03359L10.1037 6.03727C9.95407 6.88249 9.526 8.31197 8.33541 10.32C8.31724 10.3515 8.303 10.3756 8.29372 10.3913C8.24306 10.495 8.15945 10.582 8.05301 10.6348C7.97811 10.6727 7.89566 10.6922 7.81442 10.6922Z" fill="#406299"/>
<path fill-rule="evenodd" clip-rule="evenodd" d="M13.956 9.01271C13.9385 9.02842 13.9198 9.04237 13.9004 9.05529C13.9211 9.04234 13.9392 9.02752 13.956 9.01271ZM8.52715 10.0061C8.95881 10.2468 9.76388 10.5745 10.6073 10.2885C11.1056 10.1172 11.8905 9.68856 12.8792 8.62204C12.2675 8.03785 11.6081 7.79438 10.9554 7.91659C9.91117 8.11003 8.94642 9.35897 8.52715 10.0061ZM9.93074 11.4642C8.66965 11.4642 7.64655 10.7477 7.45865 10.5607C7.41529 10.5171 7.37902 10.469 7.35221 10.4181C7.31986 10.357 7.29852 10.2885 7.292 10.2163C7.27737 10.057 7.30224 9.94499 7.60866 9.46544C7.7523 9.24139 7.98823 8.89792 8.3002 8.53038C9.10503 7.58141 9.93242 7.02134 10.76 6.86764C11.8888 6.65748 13.0227 7.13427 13.9577 8.21007L13.9664 8.22021C13.9922 8.24427 14.0161 8.27025 14.0374 8.29987C14.1377 8.43962 14.1642 8.61833 14.1105 8.78034C14.0831 8.86177 14.0374 8.93404 13.9781 8.99236C13.9698 9.00161 13.9596 9.01364 13.9467 9.02848C12.6795 10.4903 11.6183 11.0699 10.9508 11.2976C10.602 11.4161 10.2583 11.4642 9.93074 11.4642Z" fill="#406299"/>
<path fill-rule="evenodd" clip-rule="evenodd" d="M3.80949 10.8754C3.44623 11.7994 2.86022 13.7112 3.24253 15.1369C3.51787 16.1941 4.15719 16.6849 4.69697 16.9135C4.86476 16.0562 5.13668 14.4046 4.93679 13.0538C4.77142 11.9558 4.20722 11.2495 3.80949 10.8754ZM5.10724 18.1281C5.07848 18.1281 5.04966 18.1263 5.02192 18.1217C4.99723 18.1179 4.97288 18.1115 4.94885 18.1041C3.57955 17.8152 2.58153 16.833 2.21118 15.4091C1.88018 14.1741 2.13529 12.7252 2.40841 11.7281C2.56594 11.1504 2.74076 10.6773 2.85926 10.3829C3.11293 9.75524 3.1954 9.65062 3.38973 9.56824C3.46203 9.53769 3.53786 9.52473 3.61199 9.52566C3.67995 9.52748 3.75458 9.5414 3.83511 9.57749C4.21027 9.74411 5.67557 10.7949 5.99122 12.8955C6.25333 14.6601 5.81349 16.7886 5.66908 17.4884C5.65552 17.555 5.64403 17.6051 5.63852 17.6366C5.62964 17.7615 5.57553 17.881 5.4839 17.9726C5.38303 18.0726 5.24687 18.1282 5.10724 18.1281Z" fill="#406299"/>
<path fill-rule="evenodd" clip-rule="evenodd" d="M5.74419 17.1643C6.24328 17.2115 7.09383 17.1838 7.79556 16.6153C8.39217 16.1302 8.95371 15.3146 9.46851 14.1879C8.88004 13.9416 8.13626 13.8231 7.43084 14.261C6.49339 14.8415 5.95142 16.3802 5.74419 17.1643ZM6.07582 18.2494C5.46382 18.2494 5.00247 18.1235 4.89507 18.0716C4.88304 18.0661 4.87194 18.0605 4.8618 18.054C4.75808 17.9985 4.67378 17.9078 4.62476 17.792C4.56767 17.6578 4.54516 17.5596 4.69233 16.9718C4.75808 16.7079 4.87565 16.295 5.05798 15.8312C5.52466 14.6425 6.13375 13.8093 6.86888 13.3537C7.88932 12.7214 9.1306 12.7529 10.3656 13.4417L10.3732 13.4454C10.4094 13.4611 10.4443 13.4806 10.4767 13.5037C10.6156 13.6046 10.698 13.7657 10.697 13.9379C10.6973 14.0305 10.672 14.1203 10.6276 14.199C10.6193 14.2175 10.6091 14.2425 10.5952 14.2749C9.97406 15.7339 9.25835 16.8005 8.46771 17.4439C7.6802 18.0827 6.77812 18.2494 6.07582 18.2494Z" fill="#406299"/>
<path fill-rule="evenodd" clip-rule="evenodd" d="M1.55149 19.8871C1.50481 20.8648 1.54371 22.9626 2.35195 24.1217C2.91962 24.9466 3.64805 25.1457 4.26465 25.1235C4.06194 23.4968 3.73328 22.2433 3.28608 21.3934V21.3916C2.78927 20.4408 2.03256 20.0473 1.55149 19.8871ZM4.18065 26.1909C3.09001 26.1918 2.12889 25.6799 1.47425 24.7291C0.77159 23.7209 0.552181 22.2692 0.491105 21.2305C0.457021 20.6315 0.469798 20.1232 0.487424 19.802C0.523693 19.1335 0.56047 18.9901 0.737296 18.8419C0.798672 18.791 0.867858 18.7558 0.941024 18.7364C0.975348 18.7262 1.01135 18.7197 1.04839 18.7169C1.35396 18.6919 3.23422 18.991 4.23036 20.8963C5.04027 22.4368 5.28215 24.6069 5.36172 25.3197C5.36843 25.3836 5.37366 25.4318 5.37746 25.4623C5.40096 25.5576 5.39689 25.6595 5.36448 25.7558C5.31181 25.9141 5.18861 26.0382 5.0312 26.0918C4.99143 26.1057 4.94969 26.1141 4.90812 26.1178C4.66017 26.1668 4.41739 26.1909 4.18065 26.1909Z" fill="#406299"/>
<path fill-rule="evenodd" clip-rule="evenodd" d="M7.89305 20.7138C7.31894 20.7138 6.58273 20.8786 6.04486 21.5785L6.04396 21.5804C5.33882 22.4913 5.28848 24.0966 5.33202 24.9364C5.82836 24.7734 6.59757 24.4068 7.08265 23.6208C7.37894 23.1375 7.75575 22.2479 7.93261 20.7147C7.91971 20.7138 7.90574 20.7138 7.89305 20.7138ZM4.86469 26.1213C4.8593 26.1213 4.8543 26.1205 4.84964 26.1205C4.82471 26.1195 4.79972 26.1168 4.77557 26.1121C4.68143 26.0954 4.59142 26.0538 4.51547 25.9872C4.35558 25.8455 4.3173 25.7113 4.27658 25.1419C4.25728 24.8688 4.24052 24.4374 4.26826 23.9337C4.31853 23.0477 4.52007 21.8072 5.2005 20.9277C5.96742 19.9305 7.19008 19.4834 8.55753 19.701L8.55878 19.7009C8.57336 19.7019 8.58805 19.7037 8.6028 19.7065C8.77167 19.7334 8.91761 19.8398 8.9944 19.9935C9.04743 20.0981 9.06296 20.2157 9.04261 20.3278C9.04081 20.3444 9.03881 20.3666 9.03707 20.3944C8.90035 21.996 8.54828 23.2699 7.99087 24.18C6.99022 25.8001 5.16262 26.1214 4.86469 26.1213Z" fill="#406299"/>
<path fill-rule="evenodd" clip-rule="evenodd" d="M7.39108 32.7418C7.44237 32.777 7.48645 32.8205 7.52251 32.8705C7.49025 32.8232 7.44569 32.7788 7.39108 32.7418ZM2.24677 29.2154C2.49473 30.1125 3.19168 32.1067 4.31278 32.8585C4.97017 33.3075 5.67002 33.3445 6.39946 32.9724C5.70802 31.517 5.0164 30.4709 4.34243 29.8589C3.57794 29.1636 2.72964 29.1479 2.24677 29.2154ZM5.42218 34.2934C4.8323 34.2934 4.25445 34.1092 3.71566 33.7417C2.93256 33.2167 2.24824 32.2493 1.68538 30.8699C1.46442 30.3255 1.31503 29.8459 1.2299 29.5395C1.04945 28.8923 1.0484 28.7609 1.14377 28.5813C1.14865 28.5711 1.15484 28.5618 1.16041 28.5517C1.2828 28.3461 1.51322 28.286 1.70385 28.2369C2.14853 28.1202 3.70273 27.8379 5.05802 29.0692C6.29497 30.1894 7.19295 32.141 7.48825 32.7816C7.51234 32.8344 7.53086 32.8751 7.54289 32.9011C7.59481 32.9844 7.62345 33.0816 7.62345 33.1825C7.62357 33.3899 7.50495 33.5695 7.3309 33.6584L7.32902 33.6593C6.70158 34.0814 6.05422 34.2934 5.42218 34.2934Z" fill="#406299"/>
<path fill-rule="evenodd" clip-rule="evenodd" d="M8.46423 27.4369C7.87346 27.6702 7.25027 28.1202 6.96147 28.9877C6.58869 30.1005 7.00869 31.5882 7.30671 32.3742C7.72434 32.0168 8.31775 31.3707 8.53435 30.4523C8.66589 29.8857 8.75196 28.9164 8.46423 27.4369ZM7.08859 33.7157C7.01982 33.7157 6.95037 33.7028 6.88366 33.675C6.68652 33.5925 6.60318 33.4713 6.3902 32.9547C6.28741 32.7056 6.13746 32.3075 6.00788 31.8224C5.7804 30.9734 5.58663 29.7348 5.94956 28.6498C6.35911 27.4249 7.33086 26.5741 8.68804 26.2538L8.69214 26.2528C8.70884 26.2473 8.72509 26.2417 8.74268 26.238C8.9225 26.1955 9.11207 26.2491 9.2426 26.3806C9.32615 26.4639 9.37688 26.5704 9.39262 26.6834C9.3966 26.6982 9.40091 26.7176 9.40647 26.7426C9.85364 28.6793 9.74349 29.9616 9.57223 30.6948C9.15663 32.4631 7.67242 33.4991 7.32802 33.6611C7.24109 33.7018 7.16415 33.7138 7.08859 33.7157Z" fill="#406299"/>
<path fill-rule="evenodd" clip-rule="evenodd" d="M11.4814 38.9253C11.4835 38.9253 11.4869 38.9253 11.4869 38.9253C11.5268 38.9253 11.5646 38.9309 11.6026 38.9392C11.5593 38.929 11.5108 38.9235 11.46 38.9253C11.4677 38.9253 11.4738 38.9253 11.4814 38.9253ZM5.8359 37.6857C6.3471 38.4393 7.64748 40.0252 8.84091 40.265C9.57332 40.4168 10.2222 40.1603 10.7777 39.504C9.69745 38.4078 8.7474 37.6968 7.95119 37.3895C7.02071 37.0394 6.23479 37.4172 5.8359 37.6857ZM9.24292 41.374C9.0409 41.374 8.83538 41.3528 8.62794 41.3102C7.74103 41.1315 6.80504 40.4974 5.84963 39.4243C5.47384 39.0031 5.18491 38.6115 5.00902 38.3578C4.61191 37.7875 4.61179 37.695 4.61179 37.5672C4.61191 37.5514 4.61275 37.5357 4.61464 37.52C4.62314 37.3478 4.69977 37.1747 5.19419 36.8321C5.76094 36.4396 6.92076 35.8619 8.32887 36.3914L8.33255 36.3933C9.82158 36.9673 11.2581 38.4615 11.7293 38.9531C11.7676 38.9929 11.7969 39.0235 11.8173 39.0438C11.8592 39.0771 11.896 39.1179 11.9266 39.1633C12.0184 39.3021 12.0413 39.4753 11.9867 39.6326C11.9638 39.7002 11.9266 39.7623 11.8803 39.8141C11.8788 39.8178 11.8756 39.8206 11.8738 39.8243C11.1702 40.839 10.2527 41.3741 9.24292 41.374Z" fill="#406299"/>
<path fill-rule="evenodd" clip-rule="evenodd" d="M10.6723 32.563C10.6648 32.5796 10.6591 32.5973 10.6536 32.6158C10.6556 32.6093 10.6573 32.6019 10.6601 32.5954C10.664 32.5843 10.6674 32.5732 10.6723 32.563ZM11.0064 33.5656C10.5594 33.9776 10.0869 34.6405 10.0925 35.5987V35.6015C10.0928 36.7735 10.9008 37.9752 11.4183 38.6057C11.6955 38.1048 12.0423 37.267 11.9626 36.3208C11.8942 35.5256 11.5728 34.6007 11.0064 33.5656ZM11.4918 39.9925C11.2527 39.9925 11.1155 39.8787 10.7693 39.4861C10.5973 39.2898 10.3341 38.9714 10.0629 38.5631C9.58994 37.8512 9.02598 36.7597 9.02598 35.6033C9.01958 34.3081 9.67685 33.1222 10.8295 32.351L10.8322 32.3491C10.8722 32.3177 10.9155 32.2917 10.9628 32.2723C11.1056 32.214 11.2664 32.2196 11.4044 32.2889C11.5168 32.3454 11.6025 32.438 11.6525 32.5482C11.663 32.5658 11.6766 32.5889 11.6932 32.6185C12.4866 33.9563 12.9347 35.1719 13.0254 36.2301C13.1961 38.2566 11.9071 39.7972 11.8941 39.8111C11.8759 39.8324 11.8562 39.85 11.8367 39.8666C11.7405 39.9471 11.6183 39.9925 11.4918 39.9925Z" fill="#406299"/>
<path fill-rule="evenodd" clip-rule="evenodd" d="M11.5488 44.0391C11.538 44.0252 11.5268 44.0123 11.5138 44.0002C11.5261 44.0123 11.5376 44.0262 11.5488 44.0391ZM11.8 44.2326C12.4562 44.7048 14.1012 45.7176 15.2807 45.4714C15.979 45.3269 16.4907 44.8298 16.8054 43.9892C16.1494 43.6827 14.7771 43.0847 13.667 43.0847C13.6498 43.0846 13.6327 43.0856 13.6151 43.0856C12.6403 43.1087 12.0552 43.8235 11.8 44.2326ZM14.8967 46.5749C14.158 46.5749 13.3087 46.3259 12.3644 45.8315C12.1462 45.7167 11.1238 45.1362 10.7609 44.7511L10.7585 44.7539C10.6806 44.6761 10.6044 44.5576 10.6026 44.3909C10.6019 44.3623 10.6036 44.3326 10.6072 44.304C10.6156 44.2447 10.6322 44.1799 10.66 44.1095C10.6685 44.0891 11.5034 42.0672 13.592 42.0191H13.5948C15.1004 41.9894 16.8239 42.8153 17.472 43.1254C17.5326 43.1532 17.5784 43.1763 17.6109 43.1902C17.6954 43.2152 17.7738 43.2605 17.8387 43.3254C17.9992 43.4855 18.0358 43.7216 17.9498 43.917C17.9492 43.9216 17.947 43.9271 17.9451 43.9327C17.428 45.7574 16.3278 46.3444 15.4963 46.5157C15.3058 46.5554 15.1057 46.5749 14.8967 46.5749Z" fill="#406299"/>
<path fill-rule="evenodd" clip-rule="evenodd" d="M15.2412 38.3957C14.8429 39.1382 14.7594 39.9058 15.003 40.6399L15.0039 40.6408C15.3604 41.7231 16.4472 42.5322 17.1082 42.9257C17.2147 42.3526 17.2868 41.4351 16.9305 40.5881C16.716 40.0844 16.2491 39.3141 15.2412 38.3957ZM17.4584 44.2301C17.3205 44.2301 17.1526 44.1663 16.8036 43.9765C16.5836 43.857 16.2407 43.6552 15.863 43.3719C15.2066 42.8784 14.3493 42.0629 13.991 40.9751C13.5927 39.7761 13.8262 38.4847 14.6474 37.3376C14.6496 37.3339 14.6521 37.3311 14.6548 37.3274C14.678 37.2839 14.7085 37.2441 14.7446 37.208C14.8883 37.0645 15.0992 37.0154 15.2909 37.0793C15.37 37.1052 15.4399 37.1497 15.4973 37.207C15.5087 37.2163 15.5232 37.2284 15.5409 37.2431C16.9805 38.4439 17.6248 39.4984 17.9127 40.1715C18.2212 40.9047 18.3284 41.7722 18.2247 42.685C18.2242 42.6942 18.1396 43.396 17.9813 43.8144C17.9371 44.0014 17.7932 44.1579 17.597 44.2098C17.5501 44.2227 17.5054 44.2301 17.4584 44.2301Z" fill="#406299"/>
<path d="M32.0339 12.0004C31.2855 12.0004 30.5677 12.2977 30.0385 12.8269C29.5092 13.3561 29.2119 14.0739 29.2119 14.8224V17.0668C29.2119 18.0451 29.7199 18.9519 30.5496 19.4656L37.8228 23.962C36.7166 24.558 35.8408 25.5063 35.3345 26.6564C34.8281 27.8065 34.72 29.0927 35.0274 30.3112C35.3348 31.5297 36.04 32.6107 37.0313 33.383C38.0226 34.1553 39.2433 34.5747 40.5 34.5747C41.7567 34.5747 42.9774 34.1553 43.9687 33.383C44.96 32.6107 45.6652 31.5297 45.9726 30.3112C46.28 29.0927 46.1719 27.8065 45.6655 26.6564C45.1592 25.5063 44.2834 24.558 43.1772 23.962L50.4504 19.4656C50.8592 19.2127 51.1967 18.8597 51.4308 18.4399C51.6649 18.0201 51.7879 17.5475 51.7881 17.0668V14.8224C51.7881 14.0739 51.4908 13.3561 50.9615 12.8269C50.4323 12.2977 49.7145 12.0004 48.9661 12.0004H32.0339ZM31.0933 14.8224C31.0933 14.5729 31.1924 14.3336 31.3688 14.1572C31.5452 13.9808 31.7845 13.8817 32.0339 13.8817H34.856V19.9171L31.5391 17.8664C31.4029 17.7821 31.2904 17.6645 31.2124 17.5245C31.1343 17.3846 31.0933 17.2271 31.0933 17.0668V14.8224ZM36.7373 21.0798V13.8817H44.2627V21.0798L40.9948 23.1003C40.8461 23.1923 40.6748 23.241 40.5 23.241C40.3252 23.241 40.1539 23.1923 40.0052 23.1003L36.7373 21.0798ZM46.144 19.9171V13.8817H48.9661C49.2155 13.8817 49.4548 13.9808 49.6312 14.1572C49.8076 14.3336 49.9067 14.5729 49.9067 14.8224V17.0668C49.9067 17.2271 49.8657 17.3846 49.7876 17.5245C49.7096 17.6645 49.5971 17.7821 49.4609 17.8664L46.144 19.9171ZM36.7373 28.9325C36.7373 27.9346 37.1337 26.9775 37.8394 26.2719C38.545 25.5662 39.5021 25.1698 40.5 25.1698C41.4979 25.1698 42.455 25.5662 43.1606 26.2719C43.8663 26.9775 44.2627 27.9346 44.2627 28.9325C44.2627 29.9304 43.8663 30.8875 43.1606 31.5931C42.455 32.2988 41.4979 32.6952 40.5 32.6952C39.5021 32.6952 38.545 32.2988 37.8394 31.5931C37.1337 30.8875 36.7373 29.9304 36.7373 28.9325Z" fill="currentColor"/>
<path fill-rule="evenodd" clip-rule="evenodd" d="M64.4053 1.06663C65.1702 1.06663 65.9276 1.28885 66.5896 1.7212C67.6728 2.44424 68.2533 3.62463 68.5291 4.37733C67.8152 4.24769 66.8339 3.97367 65.9962 3.39504C65.4839 3.03301 64.7278 2.34983 63.8909 1.10092C64.062 1.07776 64.2343 1.06666 64.4053 1.06663ZM69.2704 5.54562C69.3046 5.54562 69.34 5.5429 69.3744 5.53547C69.5862 5.49376 69.7521 5.3281 69.7937 5.11704C69.8545 4.8124 69.4762 3.81812 69.2698 3.37838C68.9122 2.6146 68.2588 1.55362 67.1775 0.830579C65.8876 -0.0100681 64.3205 -0.223911 62.8706 0.240851C62.676 0.303753 62.5336 0.472289 62.5059 0.67503C62.4864 0.813911 62.5225 0.952762 62.6022 1.06294C62.6101 1.0759 62.6216 1.09353 62.6364 1.11759C63.7045 2.871 64.7194 3.79867 65.3833 4.26807L65.3878 4.27085C66.7958 5.24475 68.5088 5.48272 69.18 5.53918L69.1955 5.54005C69.2205 5.54382 69.2457 5.54568 69.2704 5.54562Z" fill="#406299"/>
<path fill-rule="evenodd" clip-rule="evenodd" d="M72.2717 3.31725C72.9087 4.08288 73.9885 5.61233 74.0931 7.04454C74.1827 8.17031 73.758 8.90077 73.3321 9.34147C72.4146 7.70465 72.0712 6.55111 71.9472 5.85305C71.7626 4.76151 72.0323 3.85886 72.2717 3.31725ZM73.1866 10.6922C73.2837 10.6922 73.3812 10.6653 73.4674 10.6126C73.4874 10.5996 73.5081 10.5848 73.5266 10.57C74.0736 10.1876 75.3245 9.07484 75.1569 6.96308C75.0614 5.6642 74.3607 4.3949 73.7905 3.55893C73.4636 3.08025 73.1516 2.70164 72.948 2.46832C72.5388 1.99892 72.4064 1.87952 72.1471 1.89065C72.0254 1.89523 71.9157 1.9397 71.8277 2.0119C71.8018 2.03315 71.7759 2.0582 71.75 2.08875C71.4822 2.40536 70.5519 4.00513 70.8964 6.03359L70.8973 6.03727C71.0469 6.88249 71.475 8.31197 72.6656 10.32C72.6837 10.3515 72.698 10.3756 72.7073 10.3913C72.7579 10.495 72.8415 10.582 72.948 10.6348C73.0229 10.6727 73.1053 10.6922 73.1866 10.6922Z" fill="#406299"/>
<path fill-rule="evenodd" clip-rule="evenodd" d="M67.045 9.01271C67.0625 9.02842 67.0812 9.04237 67.1006 9.05529C67.0799 9.04234 67.0618 9.02752 67.045 9.01271ZM72.4738 10.0061C72.0422 10.2468 71.2371 10.5745 70.3937 10.2885C69.8954 10.1172 69.1105 9.68856 68.1218 8.62204C68.7334 8.03785 69.3929 7.79438 70.0456 7.91659C71.0898 8.11003 72.0546 9.35897 72.4738 10.0061ZM71.0702 11.4642C72.3313 11.4642 73.3544 10.7477 73.5423 10.5607C73.5857 10.5171 73.622 10.469 73.6488 10.4181C73.6811 10.357 73.7025 10.2885 73.709 10.2163C73.7236 10.057 73.6987 9.94499 73.3923 9.46544C73.2487 9.24139 73.0127 8.89792 72.7008 8.53038C71.896 7.58141 71.0686 7.02134 70.241 6.86764C69.1122 6.65748 67.9783 7.13427 67.0432 8.21007L67.0346 8.22021C67.0088 8.24427 66.9849 8.27025 66.9636 8.29987C66.8633 8.43962 66.8367 8.61833 66.8904 8.78034C66.9179 8.86177 66.9636 8.93404 67.0229 8.99236C67.0312 9.00161 67.0414 9.01364 67.0543 9.02848C68.3214 10.4903 69.3827 11.0699 70.0502 11.2976C70.399 11.4161 70.7427 11.4642 71.0702 11.4642Z" fill="#406299"/>
<path fill-rule="evenodd" clip-rule="evenodd" d="M77.1915 10.8754C77.5547 11.7994 78.1408 13.7112 77.7584 15.1369C77.4831 16.1941 76.8438 16.6849 76.304 16.9135C76.1362 16.0562 75.8643 14.4046 76.0642 13.0538C76.2296 11.9558 76.7938 11.2495 77.1915 10.8754ZM75.8937 18.1281C75.9225 18.1281 75.9513 18.1263 75.9791 18.1217C76.0037 18.1179 76.0281 18.1115 76.0521 18.1041C77.4214 17.8152 78.4195 16.833 78.7898 15.4091C79.1208 14.1741 78.8657 12.7252 78.5926 11.7281C78.435 11.1504 78.2602 10.6773 78.1417 10.3829C77.888 9.75524 77.8056 9.65062 77.6112 9.56824C77.5389 9.53769 77.4631 9.52473 77.389 9.52566C77.321 9.52748 77.2464 9.5414 77.1659 9.57749C76.7907 9.74411 75.3254 10.7949 75.0098 12.8955C74.7476 14.6601 75.1875 16.7886 75.3319 17.4884C75.3455 17.555 75.3569 17.6051 75.3625 17.6366C75.3713 17.7615 75.4254 17.881 75.5171 17.9726C75.618 18.0726 75.7541 18.1282 75.8937 18.1281Z" fill="#406299"/>
<path fill-rule="evenodd" clip-rule="evenodd" d="M75.2568 17.1643C74.7577 17.2115 73.9071 17.1838 73.2054 16.6153C72.6088 16.1302 72.0473 15.3146 71.5325 14.1879C72.1209 13.9416 72.8647 13.8231 73.5701 14.261C74.5076 14.8415 75.0496 16.3802 75.2568 17.1643ZM74.9252 18.2494C75.5372 18.2494 75.9985 18.1235 76.1059 18.0716C76.1179 18.0661 76.129 18.0605 76.1392 18.054C76.2429 17.9985 76.3272 17.9078 76.3762 17.792C76.4333 17.6578 76.4558 17.5596 76.3086 16.9718C76.2429 16.7079 76.1253 16.295 75.943 15.8312C75.4763 14.6425 74.8672 13.8093 74.1321 13.3537C73.1117 12.7214 71.8704 12.7529 70.6354 13.4417L70.6278 13.4454C70.5916 13.4611 70.5567 13.4806 70.5243 13.5037C70.3854 13.6046 70.303 13.7657 70.3039 13.9379C70.3037 14.0305 70.3289 14.1203 70.3734 14.199C70.3816 14.2175 70.3919 14.2425 70.4058 14.2749C71.0269 15.7339 71.7426 16.8005 72.5333 17.4439C73.3208 18.0827 74.2229 18.2494 74.9252 18.2494Z" fill="#406299"/>
<path fill-rule="evenodd" clip-rule="evenodd" d="M79.4495 19.8871C79.4962 20.8648 79.4573 22.9626 78.649 24.1217C78.0814 24.9466 77.3529 25.1457 76.7363 25.1235C76.939 23.4968 77.2677 22.2433 77.7149 21.3934V21.3916C78.2117 20.4408 78.9684 20.0473 79.4495 19.8871ZM76.8203 26.1909C77.911 26.1918 78.8721 25.6799 79.5267 24.7291C80.2294 23.7209 80.4488 22.2692 80.5099 21.2305C80.544 20.6315 80.5312 20.1232 80.5136 19.802C80.4773 19.1335 80.4405 18.9901 80.2637 18.8419C80.2023 18.791 80.1331 18.7558 80.06 18.7364C80.0256 18.7262 79.9896 18.7197 79.9526 18.7169C79.647 18.6919 77.7668 18.991 76.7706 20.8963C75.9607 22.4368 75.7188 24.6069 75.6393 25.3197C75.6326 25.3836 75.6273 25.4318 75.6235 25.4623C75.6 25.5576 75.6041 25.6595 75.6365 25.7558C75.6892 25.9141 75.8124 26.0382 75.9698 26.0918C76.0095 26.1057 76.0513 26.1141 76.0929 26.1178C76.3408 26.1668 76.5836 26.1909 76.8203 26.1909Z" fill="#406299"/>
<path fill-rule="evenodd" clip-rule="evenodd" d="M73.1079 20.7138C73.682 20.7138 74.4182 20.8786 74.9561 21.5785L74.957 21.5804C75.6622 22.4913 75.7125 24.0966 75.669 24.9364C75.1726 24.7734 74.4034 24.4068 73.9183 23.6208C73.622 23.1375 73.2452 22.2479 73.0684 20.7147C73.0813 20.7138 73.0952 20.7138 73.1079 20.7138ZM76.1363 26.1213C76.1417 26.1213 76.1467 26.1205 76.1513 26.1205C76.1763 26.1195 76.2013 26.1168 76.2254 26.1121C76.3195 26.0954 76.4096 26.0538 76.4855 25.9872C76.6454 25.8455 76.6837 25.7113 76.7244 25.1419C76.7437 24.8688 76.7605 24.4374 76.7327 23.9337C76.6824 23.0477 76.4809 21.8072 75.8005 20.9277C75.0336 19.9305 73.8109 19.4834 72.4434 19.701L72.4422 19.7009C72.4276 19.7019 72.4129 19.7037 72.3982 19.7065C72.2293 19.7334 72.0834 19.8398 72.0066 19.9935C71.9535 20.0981 71.938 20.2157 71.9584 20.3278C71.9602 20.3444 71.9622 20.3666 71.9639 20.3944C72.1006 21.996 72.4527 23.2699 73.0101 24.18C74.0108 25.8001 75.8384 26.1214 76.1363 26.1213Z" fill="#406299"/>
<path fill-rule="evenodd" clip-rule="evenodd" d="M73.6099 32.7418C73.5586 32.777 73.5145 32.8205 73.4785 32.8705C73.5107 32.8232 73.5553 32.7788 73.6099 32.7418ZM78.7542 29.2154C78.5062 30.1125 77.8093 32.1067 76.6882 32.8585C76.0308 33.3075 75.331 33.3445 74.6015 32.9724C75.293 31.517 75.9846 30.4709 76.6585 29.8589C77.423 29.1636 78.2713 29.1479 78.7542 29.2154ZM75.5788 34.2934C76.1687 34.2934 76.7465 34.1092 77.2853 33.7417C78.0684 33.2167 78.7527 32.2493 79.3156 30.8699C79.5366 30.3255 79.6859 29.8459 79.7711 29.5395C79.9515 28.8923 79.9526 28.7609 79.8572 28.5813C79.8523 28.5711 79.8461 28.5618 79.8406 28.5517C79.7182 28.3461 79.4878 28.286 79.2971 28.2369C78.8524 28.1202 77.2982 27.8379 75.943 29.0692C74.706 30.1894 73.808 32.141 73.5127 32.7816C73.4886 32.8344 73.4701 32.8751 73.4581 32.9011C73.4062 32.9844 73.3775 33.0816 73.3775 33.1825C73.3774 33.3899 73.496 33.5695 73.6701 33.6584L73.672 33.6593C74.2994 34.0814 74.9468 34.2934 75.5788 34.2934Z" fill="#406299"/>
<path fill-rule="evenodd" clip-rule="evenodd" d="M72.5367 27.4369C73.1275 27.6702 73.7507 28.1202 74.0395 28.9877C74.4123 30.1005 73.9923 31.5882 73.6943 32.3742C73.2766 32.0168 72.6832 31.3707 72.4666 30.4523C72.3351 29.8857 72.249 28.9164 72.5367 27.4369ZM73.9124 33.7157C73.9812 33.7157 74.0506 33.7028 74.1173 33.675C74.3145 33.5925 74.3978 33.4713 74.6108 32.9547C74.7136 32.7056 74.8635 32.3075 74.9931 31.8224C75.2206 30.9734 75.4143 29.7348 75.0514 28.6498C74.6419 27.4249 73.6701 26.5741 72.3129 26.2538L72.3088 26.2528C72.2921 26.2473 72.2759 26.2417 72.2583 26.238C72.0785 26.1955 71.8889 26.2491 71.7584 26.3806C71.6748 26.4639 71.6241 26.5704 71.6084 26.6834C71.6044 26.6982 71.6001 26.7176 71.5945 26.7426C71.1473 28.6793 71.2575 29.9616 71.4287 30.6948C71.8443 32.4631 73.3286 33.4991 73.673 33.6611C73.7599 33.7018 73.8368 33.7138 73.9124 33.7157Z" fill="#406299"/>
<path fill-rule="evenodd" clip-rule="evenodd" d="M69.5196 38.9253C69.5175 38.9253 69.5141 38.9253 69.5141 38.9253C69.4742 38.9253 69.4364 38.9309 69.3984 38.9392C69.4417 38.929 69.4901 38.9235 69.541 38.9253C69.5333 38.9253 69.5271 38.9253 69.5196 38.9253ZM75.1651 37.6857C74.6539 38.4393 73.3535 40.0252 72.1601 40.265C71.4277 40.4168 70.7788 40.1603 70.2233 39.504C71.3035 38.4078 72.2536 37.6968 73.0498 37.3895C73.9803 37.0394 74.7662 37.4172 75.1651 37.6857ZM71.7581 41.374C71.9601 41.374 72.1656 41.3528 72.373 41.3102C73.2599 41.1315 74.1959 40.4974 75.1513 39.4243C75.5271 39.0031 75.8161 38.6115 75.992 38.3578C76.3891 37.7875 76.3892 37.695 76.3892 37.5672C76.3891 37.5514 76.3882 37.5357 76.3863 37.52C76.3778 37.3478 76.3012 37.1747 75.8068 36.8321C75.24 36.4396 74.0802 35.8619 72.6721 36.3914L72.6684 36.3933C71.1794 36.9673 69.7429 38.4615 69.2716 38.9531C69.2334 38.9929 69.204 39.0235 69.1837 39.0438C69.1418 39.0771 69.105 39.1179 69.0744 39.1633C68.9826 39.3021 68.9597 39.4753 69.0142 39.6326C69.0372 39.7002 69.0744 39.7623 69.1207 39.8141C69.1222 39.8178 69.1254 39.8206 69.1272 39.8243C69.8308 40.839 70.7483 41.3741 71.7581 41.374Z" fill="#406299"/>
<path fill-rule="evenodd" clip-rule="evenodd" d="M70.3287 32.563C70.3362 32.5796 70.3418 32.5973 70.3474 32.6158C70.3454 32.6093 70.3437 32.6019 70.3409 32.5954C70.337 32.5843 70.3336 32.5732 70.3287 32.563ZM69.9946 33.5656C70.4416 33.9776 70.914 34.6405 70.9085 35.5987V35.6015C70.9082 36.7735 70.1002 37.9752 69.5827 38.6057C69.3055 38.1048 68.9587 37.267 69.0384 36.3208C69.1067 35.5256 69.4282 34.6007 69.9946 33.5656ZM69.5092 39.9925C69.7483 39.9925 69.8855 39.8787 70.2317 39.4861C70.4037 39.2898 70.6668 38.9714 70.9381 38.5631C71.411 37.8512 71.975 36.7597 71.975 35.6033C71.9814 34.3081 71.3241 33.1222 70.1715 32.351L70.1687 32.3491C70.1288 32.3177 70.0855 32.2917 70.0382 32.2723C69.8954 32.214 69.7346 32.2196 69.5966 32.2889C69.4842 32.3454 69.3984 32.438 69.3485 32.5482C69.338 32.5658 69.3244 32.5889 69.3078 32.6185C68.5144 33.9563 68.0662 35.1719 67.9755 36.2301C67.8049 38.2566 69.0938 39.7972 69.1069 39.8111C69.1251 39.8324 69.1448 39.85 69.1642 39.8666C69.2605 39.9471 69.3827 39.9925 69.5092 39.9925Z" fill="#406299"/>
<path fill-rule="evenodd" clip-rule="evenodd" d="M69.4522 44.0391C69.463 44.0252 69.4742 44.0123 69.4872 44.0002C69.4749 44.0123 69.4633 44.0262 69.4522 44.0391ZM69.201 44.2326C68.5448 44.7048 66.8997 45.7176 65.7203 45.4714C65.022 45.3269 64.5103 44.8298 64.1956 43.9892C64.8516 43.6827 66.2239 43.0847 67.334 43.0847C67.3512 43.0846 67.3682 43.0856 67.3859 43.0856C68.3606 43.1087 68.9458 43.8235 69.201 44.2326ZM66.1043 46.5749C66.8429 46.5749 67.6923 46.3259 68.6366 45.8315C68.8548 45.7167 69.8772 45.1362 70.2401 44.7511L70.2425 44.7539C70.3204 44.6761 70.3965 44.5576 70.3984 44.3909C70.3991 44.3623 70.3974 44.3326 70.3938 44.304C70.3854 44.2447 70.3688 44.1799 70.3409 44.1095C70.3324 44.0891 69.4976 42.0672 67.409 42.0191H67.4062C65.9006 41.9894 64.177 42.8153 63.529 43.1254C63.4684 43.1532 63.4225 43.1763 63.3901 43.1902C63.3055 43.2152 63.2272 43.2605 63.1623 43.3254C63.0018 43.4855 62.9652 43.7216 63.0512 43.917C63.0518 43.9216 63.054 43.9271 63.0559 43.9327C63.573 45.7574 64.6732 46.3444 65.5046 46.5157C65.6952 46.5554 65.8952 46.5749 66.1043 46.5749Z" fill="#406299"/>
<path fill-rule="evenodd" clip-rule="evenodd" d="M65.7597 38.3957C66.158 39.1382 66.2415 39.9058 65.998 40.6399L65.9971 40.6408C65.6406 41.7231 64.5538 42.5322 63.8928 42.9257C63.7863 42.3526 63.7141 41.4351 64.0705 40.5881C64.2849 40.0844 64.7519 39.3141 65.7597 38.3957ZM63.5426 44.2301C63.6804 44.2301 63.8484 44.1663 64.1974 43.9765C64.4174 43.857 64.7603 43.6552 65.138 43.3719C65.7944 42.8784 66.6517 42.0629 67.0099 40.9751C67.4083 39.7761 67.1748 38.4847 66.3536 37.3376C66.3513 37.3339 66.3489 37.3311 66.3461 37.3274C66.323 37.2839 66.2925 37.2441 66.2563 37.208C66.1126 37.0645 65.9018 37.0154 65.7101 37.0793C65.631 37.1052 65.5611 37.1497 65.5036 37.207C65.4923 37.2163 65.4777 37.2284 65.4601 37.2431C64.0204 38.4439 63.3762 39.4984 63.0883 40.1715C62.7798 40.9047 62.6726 41.7722 62.7763 42.685C62.7768 42.6942 62.8614 43.396 63.0197 43.8144C63.0639 44.0014 63.2077 44.1579 63.4039 44.2098C63.4509 44.2227 63.4956 44.2301 63.5426 44.2301Z" fill="#406299"/>
</svg>
