<svg viewBox="0 0 24 24" fill="none" xmlns="http://www.w3.org/2000/svg">
<g clip-path="url(#clip0_4905_640)">
<path fill-rule="evenodd" clip-rule="evenodd" d="M12.0011 14.122L17.3041 19.425C17.5855 19.7064 17.9671 19.8645 18.3651 19.8645C18.763 19.8645 19.1447 19.7064 19.4261 19.425C19.7075 19.1436 19.8656 18.7619 19.8656 18.364C19.8656 17.966 19.7075 17.5844 19.4261 17.303L14.1211 12L19.4251 6.69699C19.5643 6.55766 19.6748 6.39226 19.7501 6.21024C19.8255 6.02821 19.8642 5.83313 19.8642 5.63613C19.8641 5.43914 19.8253 5.24407 19.7499 5.06209C19.6744 4.8801 19.5639 4.71475 19.4246 4.57549C19.2852 4.43622 19.1198 4.32576 18.9378 4.25042C18.7558 4.17507 18.5607 4.13631 18.3637 4.13636C18.1667 4.13641 17.9717 4.17526 17.7897 4.25069C17.6077 4.32612 17.4423 4.43666 17.3031 4.57599L12.0011 9.87899L6.69807 4.57599C6.55977 4.43266 6.3943 4.31831 6.21133 4.23961C6.02837 4.16091 5.83156 4.11944 5.63239 4.11762C5.43322 4.11579 5.23568 4.15365 5.05131 4.22899C4.86693 4.30432 4.6994 4.41562 4.55849 4.55639C4.41759 4.69717 4.30613 4.86459 4.23062 5.0489C4.15511 5.23321 4.11707 5.43071 4.1187 5.62988C4.12034 5.82905 4.16162 6.02589 4.24015 6.20894C4.31868 6.39198 4.43287 6.55755 4.57607 6.69599L9.88107 12L4.57707 17.304C4.43387 17.4424 4.31968 17.608 4.24115 17.791C4.16262 17.9741 4.12134 18.1709 4.1197 18.3701C4.11807 18.5693 4.15611 18.7668 4.23162 18.9511C4.30713 19.1354 4.41859 19.3028 4.55949 19.4436C4.7004 19.5844 4.86793 19.6957 5.05231 19.771C5.23668 19.8463 5.43422 19.8842 5.63339 19.8824C5.83256 19.8805 6.02937 19.8391 6.21233 19.7604C6.3953 19.6817 6.56077 19.5673 6.69907 19.424L12.0011 14.122Z" fill="currentColor"/>
</g>
<defs>
<clipPath id="clip0_4905_640">
<rect width="24" height="24" fill="currentColor" transform="translate(0.000976562)"/>
</clipPath>
</defs>
</svg>
