<svg viewBox="0 0 40 40" fill="none" xmlns="http://www.w3.org/2000/svg">
<path d="M9.42871 7.60229V5.02373C9.42871 4.3228 9.70716 3.65057 10.2028 3.15494C10.6984 2.6593 11.3706 2.38086 12.0716 2.38086H34.9765C35.6774 2.38086 36.3496 2.6593 36.8453 3.15494C37.3409 3.65057 37.6193 4.3228 37.6193 5.02373V27.9286C37.6193 28.6295 37.3409 29.3018 36.8453 29.7974C36.3496 30.293 35.6774 30.5715 34.9765 30.5715H32.3486" stroke="currentColor" stroke-width="2"/>
<path d="M29.6915 7.66663H5.02471C3.56509 7.66663 2.38184 8.84988 2.38184 10.3095V34.9763C2.38184 36.4359 3.56509 37.6192 5.02471 37.6192H29.6915C31.1511 37.6192 32.3344 36.4359 32.3344 34.9763V10.3095C32.3344 8.84988 31.1511 7.66663 29.6915 7.66663Z" stroke="currentColor" stroke-width="2" stroke-linejoin="round"/>
<path d="M15.1033 19.2159L19.7653 14.3618C21.0436 13.0836 23.1456 13.1109 24.4591 14.4253C25.7726 15.7388 25.8008 17.8407 24.5225 19.119L22.8399 20.9012M10.7214 24.1819C10.2721 24.6312 9.34274 25.5297 9.34274 25.5297C8.06359 26.808 8.02835 29.087 9.34274 30.4014C10.6554 31.7141 12.7573 31.7431 14.0365 30.464L18.5857 26.3341" stroke="currentColor" stroke-width="2" stroke-linecap="round" stroke-linejoin="round"/>
<path d="M15.3009 23.8128C14.7157 23.2313 14.3616 22.4571 14.3045 21.6342C14.2707 21.1725 14.3367 20.709 14.4978 20.275C14.6589 19.841 14.9115 19.4468 15.2383 19.119M18.5234 21.6394C19.8369 22.9529 19.8651 25.0549 18.5868 26.3341" stroke="currentColor" stroke-width="2" stroke-linecap="round" stroke-linejoin="round"/>
</svg>
