<svg viewBox="0 0 20 20" fill="none" xmlns="http://www.w3.org/2000/svg">
<path d="M4.36735 5.39136H3.34321C2.79997 5.39136 2.27898 5.60716 1.89485 5.99129C1.51072 6.37541 1.29492 6.8964 1.29492 7.43964V16.6569C1.29492 17.2002 1.51072 17.7211 1.89485 18.1053C2.27898 18.4894 2.79997 18.7052 3.34321 18.7052H12.5605C13.1037 18.7052 13.6247 18.4894 14.0088 18.1053C14.393 17.7211 14.6088 17.2002 14.6088 16.6569V15.6328" stroke="currentColor" stroke-width="2" stroke-linecap="round" stroke-linejoin="round"/>
<path d="M13.585 3.34307L16.6574 6.4155M18.0759 4.96634C18.4792 4.56298 18.7058 4.01592 18.7058 3.44549C18.7058 2.87506 18.4792 2.32799 18.0759 1.92463C17.6725 1.52128 17.1255 1.29468 16.555 1.29468C15.9846 1.29468 15.4375 1.52128 15.0342 1.92463L6.41602 10.5121V13.5845H9.48844L18.0759 4.96634Z" stroke="currentColor" stroke-width="2" stroke-linecap="round" stroke-linejoin="round"/>
</svg>
