<svg viewBox="0 0 20 20" fill="none" xmlns="http://www.w3.org/2000/svg">
<path d="M2.50015 10.8333H3.33348V16.6667C3.33348 17.5858 4.08098 18.3333 5.00015 18.3333H15.0001C15.9193 18.3333 16.6668 17.5858 16.6668 16.6667V10.8333H17.5001C17.6649 10.8333 17.826 10.7844 17.963 10.6928C18.1 10.6013 18.2068 10.4711 18.2699 10.3189C18.3329 10.1666 18.3494 9.99911 18.3173 9.83748C18.2852 9.67585 18.2058 9.52738 18.0893 9.41084L10.5893 1.91084C10.512 1.83338 10.4202 1.77194 10.3191 1.73001C10.218 1.68808 10.1096 1.6665 10.0001 1.6665C9.8907 1.6665 9.78233 1.68808 9.68124 1.73001C9.58014 1.77194 9.48831 1.83338 9.41098 1.91084L1.91098 9.41084C1.79447 9.52738 1.71513 9.67585 1.683 9.83748C1.65086 9.99911 1.66736 10.1666 1.73042 10.3189C1.79347 10.4711 1.90026 10.6013 2.03727 10.6928C2.17427 10.7844 2.33536 10.8333 2.50015 10.8333ZM8.33348 16.6667V12.5H11.6668V16.6667H8.33348ZM10.0001 3.67834L15.0001 8.67834V12.5L15.001 16.6667H13.3335V12.5C13.3335 11.5808 12.586 10.8333 11.6668 10.8333H8.33348C7.41431 10.8333 6.66681 11.5808 6.66681 12.5V16.6667H5.00015V8.67834L10.0001 3.67834Z" fill="currentColor"/>
</svg>
