<svg width="40" height="40" viewBox="0 0 40 40" fill="none" xmlns="http://www.w3.org/2000/svg">
<path fill-rule="evenodd" clip-rule="evenodd" d="M-0.399414 18.9913C-0.399414 9.85508 -0.399414 5.26316 2.43186 2.43187C5.28694 -0.399414 9.85507 -0.399414 18.9913 -0.399414H20.6092C29.7455 -0.399414 34.3374 -0.399414 37.1687 2.43187C40 5.26316 40 9.85508 40 18.9913V20.6092C40 29.7455 40 34.3374 37.1687 37.1687C34.3374 40 29.7455 40 20.6092 40H18.9913C9.85507 40 5.26315 40 2.43186 37.1687C-0.399414 34.3374 -0.399414 29.7693 -0.399414 20.6092V18.9913ZM19.8005 19.7051C21.7752 19.7051 23.5597 18.8962 24.8445 17.6114C26.1293 16.3266 26.9382 14.5422 26.9382 12.5674C26.9382 10.5926 26.1293 8.80821 24.8445 7.52342C23.5597 6.23864 21.7752 5.4297 19.8005 5.4297C17.8257 5.4297 16.0413 6.23864 14.7565 7.52342C13.4717 8.80821 12.6628 10.5926 12.6628 12.5674C12.6628 14.5422 13.4717 16.3266 14.7565 17.6114C16.0413 18.8962 17.8495 19.7051 19.8005 19.7051ZM17.5164 10.2595C18.1112 9.66473 18.9202 9.30785 19.8005 9.30785C20.7046 9.30785 21.5135 9.66473 22.0846 10.2595C22.6794 10.8543 23.0363 11.6633 23.0363 12.5436C23.0363 13.4477 22.6794 14.2567 22.0846 14.8277C21.4898 15.4225 20.6808 15.7794 19.8005 15.7794C18.8964 15.7794 18.0874 15.4225 17.5164 14.8277C16.9216 14.2329 16.5647 13.4239 16.5647 12.5436C16.5647 11.6633 16.9454 10.8543 17.5164 10.2595ZM27.3187 19.7289L29.4125 22.584C29.5314 22.7268 29.5076 22.9171 29.3173 23.0361C27.5566 24.4874 25.5105 25.4391 23.3692 25.9387L27.7946 33.7426C27.9135 33.9805 27.7708 34.2422 27.5091 34.2422H23.1789C23.0361 34.2422 22.9171 34.1471 22.8696 34.0281L19.7766 27.1283L16.6836 34.0281C16.636 34.1709 16.517 34.2422 16.3743 34.2422H12.0441C11.8061 34.2422 11.6396 33.9567 11.7585 33.7426L16.1839 25.9387C14.0426 25.4391 11.9965 24.4636 10.2358 23.0361C10.1169 22.9171 10.0931 22.7268 10.1882 22.584L12.282 19.7289C12.4009 19.5862 12.6389 19.5624 12.7816 19.6813C14.7564 21.3706 17.1832 22.465 19.8004 22.465C22.4175 22.465 24.8443 21.3706 26.8191 19.6813C26.9618 19.5386 27.1998 19.5624 27.3187 19.7289Z" fill="white"/>
</svg>
