<svg width="64" height="64" viewBox="0 0 64 64" fill="none" xmlns="http://www.w3.org/2000/svg">
<path d="M25.333 41.5571V22.4424C25.3334 22.2033 25.3981 21.9686 25.5204 21.7631C25.6426 21.5575 25.8179 21.3887 26.0279 21.2741C26.2378 21.1596 26.4747 21.1037 26.7137 21.1122C26.9527 21.1207 27.1851 21.1933 27.3863 21.3224L42.2557 30.8771C42.444 30.9977 42.5989 31.1638 42.7062 31.36C42.8135 31.5562 42.8697 31.7762 42.8697 31.9998C42.8697 32.2234 42.8135 32.4434 42.7062 32.6396C42.5989 32.8358 42.444 33.0018 42.2557 33.1224L27.3863 42.6798C27.1851 42.8089 26.9527 42.8815 26.7137 42.89C26.4747 42.8985 26.2378 42.8426 26.0279 42.7281C25.8179 42.6136 25.6426 42.4447 25.5204 42.2391C25.3981 42.0336 25.3334 41.7989 25.333 41.5598V41.5571Z" fill="currentColor"/>
<path d="M2.66699 32.0003C2.66699 15.8003 15.8003 2.66699 32.0003 2.66699C48.2003 2.66699 61.3337 15.8003 61.3337 32.0003C61.3337 48.2003 48.2003 61.3337 32.0003 61.3337C15.8003 61.3337 2.66699 48.2003 2.66699 32.0003ZM32.0003 6.66699C25.2815 6.66699 18.8379 9.33603 14.087 14.087C9.33603 18.8379 6.66699 25.2815 6.66699 32.0003C6.66699 38.7191 9.33603 45.1628 14.087 49.9137C18.8379 54.6646 25.2815 57.3337 32.0003 57.3337C38.7191 57.3337 45.1628 54.6646 49.9137 49.9137C54.6646 45.1628 57.3337 38.7191 57.3337 32.0003C57.3337 25.2815 54.6646 18.8379 49.9137 14.087C45.1628 9.33603 38.7191 6.66699 32.0003 6.66699Z" fill="currentColor"/>
</svg>
