<svg viewBox="0 0 32 32" fill="none" xmlns="http://www.w3.org/2000/svg">
<path d="M5.64746 5.27084V27.6649C5.64916 28.1237 5.7809 28.573 6.02779 28.9619C6.27469 29.3509 6.62693 29.6641 7.04475 29.8661C7.46257 30.0682 7.92936 30.1511 8.39243 30.1055C8.8555 30.0599 9.29642 29.8875 9.66545 29.608L25.3921 17.5494C25.7038 17.3099 25.9533 17.0008 26.1201 16.6476C26.2869 16.2945 26.3663 15.9073 26.3516 15.5179C26.337 15.1286 26.2288 14.7482 26.0359 14.4082C25.8431 14.0681 25.571 13.7781 25.2423 13.562L9.51561 3.22816C9.14016 2.98483 8.70509 2.84591 8.25625 2.82603C7.80742 2.80615 7.36146 2.90605 6.9654 3.1152C6.56934 3.32435 6.23786 3.635 6.0059 4.01439C5.77394 4.39378 5.65011 4.82785 5.64746 5.27084Z" stroke="currentColor" stroke-width="2" stroke-linecap="round" stroke-linejoin="round"/>
</svg>
