<svg width="40" height="40" viewBox="0 0 40 40" fill="none" xmlns="http://www.w3.org/2000/svg">
<g clip-path="url(#clip0_5099_5534)">
<path fill-rule="evenodd" clip-rule="evenodd" d="M2.83128 2.83128C0 5.66257 0 10.2545 0 19.3907V21.0086C0 30.1687 0 34.7368 2.83128 37.5681C5.66256 40.3994 10.2545 40.3994 19.3907 40.3994H21.0086C30.1449 40.3994 34.7368 40.3994 37.5681 37.5681C40.3994 34.7368 40.3994 30.1449 40.3994 21.0086V19.3907C40.3994 10.2545 40.3994 5.66257 37.5681 2.83128C34.7368 0 30.1449 0 21.0086 0H19.3907C10.2545 0 5.68636 0 2.83128 2.83128ZM36 10.3061C36 12.132 34.5429 13.6122 32.7455 13.6122C30.9481 13.6122 29.4911 12.132 29.4911 10.3061C29.4911 8.4802 30.9481 7 32.7455 7C34.5429 7 36 8.4802 36 10.3061ZM13.2362 21.5122H23.2249V21.5138C23.8084 21.5138 24.2141 21.4357 24.4177 21.2531C24.6213 21.0704 24.7474 20.7316 24.7474 20.2101V18.7504C24.7474 18.2554 24.6213 17.9166 24.4177 17.734C24.2141 17.5513 23.8084 17.4467 23.2249 17.4467H13.2362V21.5122ZM9 13.6138H23.9102V13.6122C24.8477 13.6122 25.6089 13.7169 26.2182 13.8995C26.8275 14.1087 27.335 14.421 27.7908 14.8644C28.2223 15.3328 28.5262 15.8542 28.704 16.4537C28.8818 17.0533 28.9836 17.8355 28.9836 18.8253V20.1289C28.9836 21.7979 28.704 23.0485 28.1464 23.8307C27.5887 24.6129 26.9126 25.0875 25.4068 25.317L29.4911 31H24.7474L21.043 25.3436H13.2362V31H9V13.6138Z" fill="currentColor"/>
</g>
<defs>
<clipPath id="clip0_5099_5534">
<rect width="40" height="40" fill="currentColor"/>
</clipPath>
</defs>
</svg>
