<svg viewBox="0 0 40 40" fill="none" xmlns="http://www.w3.org/2000/svg">
<g clip-path="url(#clip0_5098_2014)">
<path fill-rule="evenodd" clip-rule="evenodd" d="M40.001 20C40.001 31.0457 31.0467 40 20.001 40C8.95528 40 0.000976562 31.0457 0.000976562 20C0.000976562 8.95431 8.95528 0 20.001 0C31.0467 0 40.001 8.95431 40.001 20ZM20.7176 14.7648C18.7724 15.574 14.8844 17.2484 9.054 19.7888H9.0548C8.108 20.1652 7.612 20.5336 7.5668 20.8936C7.4904 21.5023 8.25247 21.742 9.29013 22.0683C9.43145 22.1128 9.57788 22.1588 9.728 22.2076C10.7492 22.5396 12.1228 22.9276 12.8368 22.9432C13.4844 22.9572 14.2076 22.69 15.0056 22.142C20.4532 18.4648 23.2652 16.606 23.4416 16.566C23.566 16.5376 23.7384 16.502 23.8556 16.606C23.9728 16.71 23.9612 16.9068 23.9488 16.9596C23.8735 17.2815 20.8853 20.0595 19.3361 21.4998C18.8518 21.9501 18.5081 22.2696 18.438 22.3424C18.2811 22.5054 18.1213 22.6595 17.9676 22.8076C17.0191 23.722 16.3077 24.4078 18.0072 25.5276C18.8228 26.0652 19.4756 26.5097 20.1267 26.9531C20.8396 27.4385 21.5504 27.9225 22.4704 28.5256C22.7049 28.6793 22.9288 28.8388 23.1468 28.9943C23.9752 29.5847 24.7193 30.115 25.6388 30.0304C26.1732 29.9812 26.7252 29.4788 27.0056 27.98C27.6684 24.438 28.9708 16.7636 29.2716 13.6012C29.298 13.3244 29.2648 12.9696 29.238 12.814C29.2112 12.6584 29.1556 12.4364 28.9532 12.2724C28.7132 12.078 28.3436 12.0372 28.178 12.04C27.426 12.0532 26.272 12.4548 20.7176 14.7648Z" fill="currentColor"/>
</g>
<defs>
<clipPath id="clip0_5098_2014">
<rect width="40" height="40" fill="currentColor" transform="translate(0.000976562)"/>
</clipPath>
</defs>
</svg>
