<svg viewBox="0 0 40 40" fill="none" xmlns="http://www.w3.org/2000/svg">
<g clip-path="url(#clip0_5089_2179)">
<path fill-rule="evenodd" clip-rule="evenodd" d="M2.81275 2.81178C0.000976562 5.62356 0.000976562 10.149 0.000976562 19.2V20.8C0.000976562 29.851 0.000976562 34.3764 2.81275 37.1882C5.62454 40 10.15 40 19.201 40H20.801C29.8519 40 34.3774 40 37.1892 37.1882C40.001 34.3764 40.001 29.851 40.001 20.8V19.2C40.001 10.149 40.001 5.62356 37.1892 2.81178C34.3774 0 29.8519 0 20.801 0H19.201C10.15 0 5.62454 0 2.81275 2.81178ZM6.75106 12.1668C6.9677 22.5668 12.1677 28.8167 21.2843 28.8167H21.8011V22.8667C25.1511 23.2 27.6843 25.6501 28.7009 28.8167H33.4344C32.1344 24.0834 28.7175 21.4667 26.5842 20.4667C28.7175 19.2334 31.7176 16.2334 32.4342 12.1668H28.1341C27.2008 15.4668 24.4344 18.4667 21.8011 18.75V12.1668H17.5009V23.7C14.8343 23.0334 11.4677 19.8001 11.3177 12.1668H6.75106Z" fill="currentColor"/>
</g>
<defs>
<clipPath id="clip0_5089_2179">
<rect width="40" height="40" fill="currentColor" transform="translate(0.000976562)"/>
</clipPath>
</defs>
</svg>
