<svg viewBox="0 0 40 40" fill="none" xmlns="http://www.w3.org/2000/svg">
<g clip-path="url(#clip0_5098_2009)">
<path fill-rule="evenodd" clip-rule="evenodd" d="M-0.398438 18.9913C-0.398438 9.85508 -0.398438 5.26316 2.43284 2.43187C5.28792 -0.399414 9.85605 -0.399414 18.9923 -0.399414H20.6102C29.7464 -0.399414 34.3384 -0.399414 37.1696 2.43187C40.0009 5.26316 40.0009 9.85508 40.0009 18.9913V20.6092C40.0009 29.7455 40.0009 34.3374 37.1696 37.1687C34.3384 40 29.7464 40 20.6102 40H18.9923C9.85605 40 5.26413 40 2.43284 37.1687C-0.398438 34.3374 -0.398438 29.7693 -0.398438 20.6092V18.9913ZM19.8015 19.7051C21.7762 19.7051 23.5607 18.8962 24.8454 17.6114C26.1302 16.3266 26.9392 14.5422 26.9392 12.5674C26.9392 10.5926 26.1302 8.80821 24.8454 7.52342C23.5607 6.23864 21.7762 5.4297 19.8015 5.4297C17.8267 5.4297 16.0423 6.23864 14.7575 7.52342C13.4727 8.80821 12.6638 10.5926 12.6638 12.5674C12.6638 14.5422 13.4727 16.3266 14.7575 17.6114C16.0423 18.8962 17.8505 19.7051 19.8015 19.7051ZM17.5174 10.2595C18.1122 9.66473 18.9211 9.30785 19.8015 9.30785C20.7056 9.30785 21.5145 9.66473 22.0855 10.2595C22.6803 10.8543 23.0372 11.6633 23.0372 12.5436C23.0372 13.4477 22.6803 14.2567 22.0855 14.8277C21.4907 15.4225 20.6818 15.7794 19.8015 15.7794C18.8973 15.7794 18.0884 15.4225 17.5174 14.8277C16.9226 14.2329 16.5657 13.4239 16.5657 12.5436C16.5657 11.6633 16.9464 10.8543 17.5174 10.2595ZM27.3197 19.7289L29.4134 22.584C29.5324 22.7268 29.5086 22.9171 29.3183 23.0361C27.5576 24.4874 25.5115 25.4391 23.3702 25.9387L27.7956 33.7426C27.9145 33.9805 27.7718 34.2422 27.51 34.2422H23.1798C23.0371 34.2422 22.9181 34.1471 22.8705 34.0281L19.7775 27.1283L16.6845 34.0281C16.6369 34.1709 16.518 34.2422 16.3752 34.2422H12.045C11.8071 34.2422 11.6406 33.9567 11.7595 33.7426L16.1849 25.9387C14.0436 25.4391 11.9974 24.4636 10.2368 23.0361C10.1178 22.9171 10.0941 22.7268 10.1892 22.584L12.283 19.7289C12.4019 19.5862 12.6398 19.5624 12.7826 19.6813C14.7574 21.3706 17.1842 22.465 19.8013 22.465C22.4185 22.465 24.8453 21.3706 26.8201 19.6813C26.9628 19.5386 27.2007 19.5624 27.3197 19.7289Z" fill="currentColor"/>
</g>
<defs>
<clipPath id="clip0_5098_2009">
<rect width="40" height="40" fill="currentColor" transform="translate(0.000976562)"/>
</clipPath>
</defs>
</svg>
