<svg width="40" height="40" viewBox="0 0 40 40" fill="none" xmlns="http://www.w3.org/2000/svg">
<path fill-rule="evenodd" clip-rule="evenodd" d="M40 20C40 31.0457 31.0457 40 20 40C8.95431 40 0 31.0457 0 20C0 8.95431 8.95431 0 20 0C31.0457 0 40 8.95431 40 20ZM20.7166 14.7648C18.7714 15.574 14.8834 17.2484 9.05302 19.7888H9.05382C8.10702 20.1652 7.61102 20.5336 7.56582 20.8936C7.48943 21.5023 8.2515 21.742 9.28915 22.0683C9.43047 22.1128 9.5769 22.1588 9.72702 22.2076C10.7482 22.5396 12.1218 22.9276 12.8358 22.9432C13.4834 22.9572 14.2066 22.69 15.0046 22.142C20.4522 18.4648 23.2642 16.606 23.4406 16.566C23.565 16.5376 23.7374 16.502 23.8546 16.606C23.9718 16.71 23.9602 16.9068 23.9478 16.9596C23.8726 17.2815 20.8844 20.0595 19.3351 21.4998C18.8508 21.9501 18.5071 22.2696 18.437 22.3424C18.2802 22.5054 18.1203 22.6595 17.9667 22.8076C17.0181 23.722 16.3067 24.4078 18.0062 25.5276C18.8218 26.0652 19.4746 26.5097 20.1258 26.9531C20.8386 27.4385 21.5494 27.9225 22.4694 28.5256C22.7039 28.6793 22.9278 28.8388 23.1458 28.9943C23.9742 29.5847 24.7183 30.115 25.6378 30.0304C26.1722 29.9812 26.7242 29.4788 27.0046 27.98C27.6674 24.438 28.9698 16.7636 29.2706 13.6012C29.297 13.3244 29.2638 12.9696 29.237 12.814C29.2102 12.6584 29.1546 12.4364 28.9522 12.2724C28.7122 12.078 28.3426 12.0372 28.177 12.04C27.425 12.0532 26.271 12.4548 20.7166 14.7648Z" fill="white"/>
</svg>
