<svg viewBox="0 0 33 32" fill="none" xmlns="http://www.w3.org/2000/svg">
<path d="M21.3924 16.4706V23.5106C21.3924 23.6366 21.3672 23.7615 21.3184 23.878C21.2695 23.9944 21.1978 24.1003 21.1075 24.1894C21.0172 24.2785 20.91 24.3493 20.792 24.3975C20.674 24.4458 20.5476 24.4706 20.4198 24.4706H2.91396C2.78624 24.4706 2.65977 24.4458 2.54178 24.3975C2.42378 24.3493 2.31657 24.2785 2.22626 24.1894C2.13595 24.1003 2.06431 23.9944 2.01544 23.878C1.96656 23.7615 1.94141 23.6366 1.94141 23.5106V9.43058C1.94141 9.17597 2.04387 8.93179 2.22626 8.75176C2.40865 8.57172 2.65602 8.47058 2.91396 8.47058H20.4198C20.6778 8.47058 20.9251 8.57172 21.1075 8.75176C21.2899 8.93179 21.3924 9.17597 21.3924 9.43058V16.4706ZM21.3924 16.4706L29.5229 9.78258C29.6649 9.66582 29.8377 9.59142 30.021 9.5681C30.2043 9.54477 30.3906 9.5735 30.5579 9.6509C30.7253 9.7283 30.8669 9.85117 30.966 10.0051C31.0652 10.1591 31.1179 10.3377 31.1179 10.5202V22.421C31.1176 22.6033 31.0647 22.7817 30.9654 22.9355C30.8661 23.0892 30.7245 23.2118 30.5572 23.289C30.3899 23.3662 30.2038 23.3948 30.0206 23.3714C29.8374 23.348 29.6648 23.2737 29.5229 23.157L21.3924 16.4706Z" stroke="currentColor" stroke-width="2" stroke-linecap="round" stroke-linejoin="round"/>
</svg>
