<svg width="32" height="32" viewBox="0 0 32 32" fill="none" xmlns="http://www.w3.org/2000/svg">
<path d="M29.9581 14.3811C30.4027 15.0041 30.625 15.3171 30.625 15.7778C30.625 16.2399 30.4027 16.5514 29.9581 17.1745C27.9603 19.9766 22.8577 26.0153 16 26.0153C9.14087 26.0153 4.03968 19.9752 2.0419 17.1745C1.5973 16.5514 1.375 16.2385 1.375 15.7778C1.375 15.3156 1.5973 15.0041 2.0419 14.3811C4.03968 11.5789 9.14234 5.54028 16 5.54028C22.8591 5.54028 27.9603 11.5804 29.9581 14.3811Z" stroke="white" stroke-width="2" stroke-linecap="round" stroke-linejoin="round"/>
<path d="M20.3873 15.7778C20.3873 14.6141 19.9251 13.4981 19.1022 12.6753C18.2794 11.8525 17.1634 11.3903 15.9998 11.3903C14.8362 11.3903 13.7202 11.8525 12.8974 12.6753C12.0746 13.4981 11.6123 14.6141 11.6123 15.7778C11.6123 16.9414 12.0746 18.0574 12.8974 18.8802C13.7202 19.703 14.8362 20.1653 15.9998 20.1653C17.1634 20.1653 18.2794 19.703 19.1022 18.8802C19.9251 18.0574 20.3873 16.9414 20.3873 15.7778Z" stroke="white" stroke-width="2" stroke-linecap="round" stroke-linejoin="round"/>
</svg>
